<svg width="320" height="284" viewBox="0 0 320 284" fill="none" xmlns="http://www.w3.org/2000/svg">
<path d="M115.28 225C123.492 225 130.552 227.841 136.405 233.507C142.259 239.173 145.207 246.022 145.207 254C145.207 261.978 142.259 268.827 136.405 274.493C130.552 280.159 123.492 283 115.28 283C107.068 283 100.008 280.159 94.1553 274.493C88.3012 268.827 85.3535 261.978 85.3535 254C85.3535 246.022 88.3012 239.173 94.1553 233.507C100.008 227.841 107.068 225 115.28 225ZM259.914 225C268.126 225 275.186 227.841 281.039 233.507C286.893 239.173 289.841 246.022 289.841 254C289.841 261.978 286.893 268.827 281.039 274.493C275.186 280.159 268.126 283 259.914 283C251.702 283 244.642 280.159 238.789 274.493C232.935 268.827 229.987 261.978 229.987 254C229.987 246.022 232.935 239.173 238.789 233.507C244.642 227.841 251.702 225 259.914 225ZM76.1289 1L76.4033 1.55957L89.8691 29H302.581C308.479 29.0001 313.02 31.5777 316.092 36.6572C319.167 41.7427 319.299 46.9627 316.478 52.1758L316.466 52.1973L265.121 141.793L265.122 141.794C262.386 146.609 258.706 150.357 254.085 153.017C249.469 155.673 244.415 157 238.942 157H131.772L116.998 183H289.841V213H115.28C104.086 213 95.563 208.211 89.8359 198.69C84.1146 189.179 83.8525 179.639 89.0957 170.214L89.1006 170.205L108.364 136.364L56.8027 31H1V1H76.1289ZM138.319 127H238.359L276.998 59H104.598L138.319 127Z" fill="white" stroke="#F0F0F0" stroke-width="2"/>
</svg>
